<?xml version="1.0" encoding="utf-8"?>
<!-- Generator: Adobe Illustrator 16.0.0, SVG Export Plug-In . SVG Version: 6.00 Build 0)  -->
<!DOCTYPE svg PUBLIC "-//W3C//DTD SVG 1.1//EN" "http://www.w3.org/Graphics/SVG/1.1/DTD/svg11.dtd">
<svg version="1.1" id="Ebene_1" xmlns="http://www.w3.org/2000/svg" xmlns:xlink="http://www.w3.org/1999/xlink" x="0px" y="0px"
	 width="174.74px" height="87.667px" viewBox="0 0 174.74 87.667" enable-background="new 0 0 174.74 87.667" xml:space="preserve">
<g>
	<path fill="#FFFFFF" d="M70.707,71.435c-3.971,0-7.051-1.317-9.24-3.952c-2.189-2.634-3.284-6.438-3.284-11.411
		c0-5.103,1.095-9.05,3.284-11.843c2.189-2.792,5.325-4.188,9.407-4.188c4.379,0,7.654,1.614,9.825,4.843h0.167l0.501-4.258h2.338
		v43.947h-2.728V73.049c0-2.264,0.056-4.564,0.167-6.902h-0.167C78.788,69.672,75.365,71.435,70.707,71.435z M70.763,68.985
		c3.674,0,6.294-1.011,7.863-3.034c1.567-2.022,2.352-5.417,2.352-10.187v-0.334c0-4.546-0.789-7.83-2.366-9.853
		c-1.576-2.022-4.091-3.034-7.542-3.034c-3.266,0-5.747,1.151-7.445,3.451c-1.697,2.301-2.546,5.678-2.546,10.131
		c0,4.249,0.83,7.455,2.491,9.616S67.627,68.985,70.763,68.985z"/>
	<path fill="#FFFFFF" d="M96.257,40.625v19.594c0,3.043,0.64,5.256,1.92,6.638s3.266,2.073,5.956,2.073
		c3.6,0,6.249-0.909,7.946-2.728c1.697-1.818,2.547-4.777,2.547-8.878V40.625h2.727v30.253h-2.338l-0.5-4.175h-0.168
		c-1.967,3.155-5.465,4.731-10.492,4.731c-6.885,0-10.326-3.683-10.326-11.049V40.625H96.257z"/>
	<path fill="#FFFFFF" d="M127.095,32.219c0-1.781,0.584-2.672,1.753-2.672c0.575,0,1.024,0.232,1.351,0.696
		c0.324,0.464,0.486,1.123,0.486,1.976c0,0.835-0.162,1.494-0.486,1.976c-0.326,0.483-0.775,0.724-1.351,0.724
		C127.679,34.919,127.095,34.019,127.095,32.219z M130.24,70.878h-2.756V40.625h2.756V70.878z"/>
	<path fill="#FFFFFF" d="M159.185,70.878h-21.598v-1.753l17.951-26.051h-16.643v-2.449h20.233v1.753l-18.063,26.051h18.119V70.878z"
		/>
</g>
<rect x="150.406" y="17.667" fill="#FFFFFF" width="11" height="18"/>
<rect x="123.406" y="16.667" fill="#FFFFFF" width="20" height="14"/>
<rect x="106.406" y="8.667" fill="#FFFFFF" width="13" height="20"/>
<g>
	<g>
		<defs>
			
				<rect id="SVGID_1_" x="85.737" y="-1.112" transform="matrix(-0.9847 -0.1741 0.1741 -0.9847 261.8381 68.9543)" width="96.413" height="48.207"/>
		</defs>
		<clipPath id="SVGID_2_">
			<use xlink:href="#SVGID_1_"  overflow="visible"/>
		</clipPath>
		<g clip-path="url(#SVGID_2_)">
			<defs>
				
					<rect id="SVGID_3_" x="85.737" y="-1.112" transform="matrix(-0.9847 -0.1741 0.1741 -0.9847 261.8381 68.9543)" width="96.413" height="48.207"/>
			</defs>
			<clipPath id="SVGID_4_">
				<use xlink:href="#SVGID_3_"  overflow="visible"/>
			</clipPath>
			<g clip-path="url(#SVGID_4_)">
				<defs>
					
						<rect id="SVGID_5_" x="96.53" y="6.549" transform="matrix(-0.9847 -0.1741 0.1741 -0.9847 259.9074 76.4788)" width="73.556" height="40.578"/>
				</defs>
				<clipPath id="SVGID_6_">
					<use xlink:href="#SVGID_5_"  overflow="visible"/>
				</clipPath>
				<g clip-path="url(#SVGID_6_)">
					<defs>
						
							<rect id="SVGID_7_" x="96.53" y="6.549" transform="matrix(-0.9847 -0.1741 0.1741 -0.9847 259.9074 76.4788)" width="73.556" height="40.578"/>
					</defs>
					<clipPath id="SVGID_8_">
						<use xlink:href="#SVGID_7_"  overflow="visible"/>
					</clipPath>
					<path clip-path="url(#SVGID_8_)" fill-rule="evenodd" clip-rule="evenodd" fill="#FEC133" d="M111.419,34.977
						c-1.102-0.854-2.208-1.702-3.303-2.564c-3.173-2.502-6.329-5.026-9.52-7.507c-1.055-0.82-1.621-1.831-1.64-3.158
						c-0.001-0.072-0.039-0.144-0.06-0.215l0.134-0.76c0.255-0.436,0.491-0.882,0.765-1.305c0.913-1.41,1.84-2.811,2.761-4.216
						c2.367-3.613,4.728-7.23,7.106-10.836c0.782-1.186,1.867-1.915,3.326-2.002c0.153-0.009,0.306-0.03,0.458-0.045l0.665,0.118
						c1.871,1.062,3.428,2.545,5.12,3.845c2.057,1.58,4.079,3.206,6.114,4.813c0.137,0.108,0.261,0.231,0.392,0.347
						c-1.008,0.833-2.047,1.633-2.834,2.695c-0.475,0.64-1.004,1.253-1.383,1.947c-0.578,1.059-1.168,2.131-1.407,3.333
						s-0.517,2.407-0.621,3.624c-0.147,1.718,0.024,3.433,0.566,5.082c0.241,0.735,0.587,1.437,0.885,2.154
						c-0.07,0.12-0.122,0.257-0.213,0.358c-1.039,1.147-2.075,2.297-3.13,3.43c-0.571,0.613-1.275,0.992-2.121,1.113
						C112.765,35.33,112.089,35.204,111.419,34.977 M112.578,22.084c0.4,0.027,0.766,0.058,1.133,0.074
						c1.878,0.08,3.313-0.808,3.884-2.594c0.358-1.123,0.581-2.309,0.699-3.482c0.211-2.099-0.903-3.699-2.944-4.202
						c-1.68-0.414-3.398-0.683-5.104-0.986c-0.548-0.098-1.053,0.088-1.453,0.488c-0.482,0.483-0.642,1.077-0.466,1.727
						c0.193,0.716,0.692,1.147,1.419,1.283c1.12,0.211,2.246,0.392,3.367,0.602c1.057,0.198,1.695,1.066,1.505,2.047
						c-0.206,1.056-1.22,1.608-2.125,1.401c-0.688-0.157-1.389-0.26-2.087-0.37c-0.521-0.082-0.757,0.083-0.852,0.594
						c-0.197,1.071-0.387,2.145-0.568,3.219c-0.081,0.479,0.097,0.721,0.581,0.814c0.536,0.103,1.074,0.192,1.612,0.287
						C112.272,23.18,112.272,23.179,112.578,22.084 M108.35,25.453c-0.063,0.364-0.136,0.726-0.19,1.091
						c-0.065,0.437,0.092,0.694,0.512,0.777c0.74,0.147,1.483,0.278,2.229,0.395c0.38,0.06,0.648-0.107,0.723-0.47
						c0.153-0.755,0.288-1.515,0.402-2.277c0.06-0.391-0.142-0.664-0.521-0.738c-0.741-0.146-1.484-0.279-2.23-0.394
						c-0.398-0.061-0.643,0.126-0.729,0.524C108.468,24.723,108.415,25.089,108.35,25.453"/>
					<path clip-path="url(#SVGID_8_)" fill-rule="evenodd" clip-rule="evenodd" fill="#A5D62E" d="M124.522,12.064
						c0.679-0.481,1.334-1,2.041-1.435c2.398-1.474,5.008-2.182,7.827-1.958c1.034,0.083,2.057,0.311,3.085,0.473
						c0.23,0.098,0.458,0.209,0.694,0.292c2.329,0.819,4.23,2.26,5.771,4.148c1.37,1.68,2.31,3.596,2.821,5.726
						c0.381,1.587,0.536,3.188,0.377,4.795c-0.14,1.392-0.387,2.778-0.893,4.104c-1.247,3.266-3.309,5.84-6.335,7.631
						c-2.043,1.209-4.245,1.818-6.605,1.904c-0.235,0.009-0.468,0.038-0.702,0.058c-0.986-0.19-1.986-0.331-2.958-0.58
						c-2.603-0.665-4.778-2.055-6.523-4.083c-0.664-0.771-1.202-1.652-1.797-2.483c-0.284-0.578-0.568-1.156-0.853-1.734
						c-0.036-0.139-0.071-0.277-0.108-0.416c-0.206-0.755-0.463-1.501-0.61-2.268c-0.476-2.462-0.303-4.896,0.409-7.296
						c0.459-1.547,1.131-2.998,2.1-4.28C122.954,13.749,123.765,12.927,124.522,12.064 M127.276,20.037
						c-1.127-0.198-2.399,0.902-2.383,2.325c0.008,0.644,0.28,1.17,0.642,1.676c1.055,1.477,2.099,2.961,3.147,4.441
						c0.894,1.263,2.053,1.464,3.313,0.569c2.593-1.841,5.184-3.683,7.773-5.527c0.994-0.708,2.019-1.378,2.968-2.142
						c1.353-1.09,1.075-3.242-0.471-3.915c-0.794-0.346-1.527-0.18-2.219,0.319c-2.708,1.955-5.422,3.902-8.135,5.849
						c-0.583,0.418-0.862,0.37-1.277-0.214c-0.597-0.837-1.19-1.676-1.783-2.516C128.53,20.445,128.095,20.174,127.276,20.037"/>
					<path clip-path="url(#SVGID_8_)" fill-rule="evenodd" clip-rule="evenodd" fill="#52C6DA" d="M156.508,43.808
						c-1.188-0.628-2.379-1.251-3.564-1.886c-2.558-1.369-5.111-2.742-7.666-4.117c-0.295-0.159-0.579-0.337-0.868-0.507
						c0.824-0.549,1.692-1.041,2.457-1.663c0.597-0.485,1.071-1.124,1.587-1.706c0.348-0.394,0.7-0.789,1.002-1.219
						c0.707-1.009,1.266-2.105,1.651-3.275c0.298-0.906,0.578-1.825,0.769-2.758c0.146-0.713,0.188-1.457,0.194-2.188
						c0.018-2.395-0.419-4.694-1.495-6.858c-0.734-1.475-1.657-2.804-2.838-3.955c-0.189-0.185-0.333-0.415-0.499-0.625
						c0.885-1.728,1.909-2.849,4.073-2.792c0.538,0.014,1.112,0.197,1.597,0.446c1.779,0.916,3.527,1.896,5.289,2.845
						c3.341,1.801,6.683,3.598,10.024,5.397c0.068,0.037,0.131,0.085,0.196,0.127c0.062,0.109,0.122,0.219,0.186,0.327
						c0.234,0.397,0.525,0.772,0.693,1.195c0.414,1.041,0.264,2.06-0.188,3.069c-2.47,5.521-4.924,11.049-7.392,16.571
						c-0.415,0.93-0.786,1.886-1.611,2.571c-0.932,0.771-1.94,1.232-3.181,0.993C156.792,43.778,156.648,43.805,156.508,43.808
						 M153.786,19.919c-0.202,1.697-0.426,3.526-0.636,5.357c-0.139,1.21-0.262,2.422-0.386,3.633
						c-0.054,0.538,0.189,0.938,0.696,1.051c0.701,0.158,1.419,0.238,2.117,0.405c0.607,0.145,1.07-0.335,1.189-0.851
						c0.112-0.483,0.228-0.967,0.349-1.449c0.651-2.594,1.307-5.188,1.958-7.783c0.138-0.55-0.141-1.067-0.688-1.191
						c-0.969-0.22-1.94-0.441-2.922-0.586C154.31,18.334,153.897,18.524,153.786,19.919 M154.225,31.837
						c-0.429-0.039-0.857-0.103-1.287-0.109c-0.412-0.006-0.773,0.25-0.856,0.638c-0.103,0.481-0.169,0.977-0.184,1.468
						c-0.013,0.438,0.27,0.776,0.689,0.866c0.733,0.155,1.472,0.288,2.213,0.398c0.468,0.07,0.825-0.13,0.99-0.579
						c0.153-0.416,0.25-0.859,0.322-1.298c0.083-0.506-0.147-0.879-0.635-1.044C155.071,32.038,154.647,31.949,154.225,31.837"/>
					<path clip-path="url(#SVGID_8_)" fill-rule="evenodd" clip-rule="evenodd" fill="#86B027" d="M132.603,37.802
						c0.233-0.02,0.468-0.049,0.702-0.058c2.36-0.086,4.563-0.695,6.605-1.904c3.026-1.792,5.088-4.365,6.335-7.631
						c0.505-1.325,0.753-2.711,0.892-4.104c0.16-1.607,0.005-3.208-0.377-4.795c-0.511-2.129-1.45-4.046-2.82-5.726
						c-1.541-1.889-3.441-3.33-5.771-4.148c-0.237-0.083-0.464-0.194-0.694-0.292c3.495,0.394,6.371,1.959,8.682,4.595
						c0.105,0.119,0.219,0.23,0.327,0.346c0.512,0.795,1.093,1.555,1.522,2.393c1.715,3.343,2.091,6.854,1.208,10.509
						c-0.637,2.633-1.889,4.919-3.754,6.881c-0.88,0.926-1.898,1.673-2.945,2.39c-0.503,0.242-0.999,0.498-1.511,0.722
						C138.294,38.169,135.496,38.47,132.603,37.802"/>
					<path clip-path="url(#SVGID_8_)" fill-rule="evenodd" clip-rule="evenodd" fill="#48B1C2" d="M142.515,36.258
						c1.047-0.717,2.065-1.464,2.945-2.39c1.865-1.961,3.117-4.248,3.754-6.881c0.883-3.654,0.507-7.166-1.208-10.509
						c-0.43-0.837-1.011-1.597-1.522-2.393l0.754-1.031c0.165,0.209,0.31,0.439,0.499,0.624c1.181,1.151,2.104,2.479,2.838,3.955
						c1.076,2.165,1.513,4.464,1.495,6.858c-0.006,0.73-0.048,1.475-0.194,2.188c-0.19,0.933-0.471,1.852-0.769,2.758
						c-0.386,1.17-0.944,2.266-1.651,3.275c-0.302,0.429-0.654,0.825-1.003,1.219c-0.515,0.582-0.989,1.221-1.586,1.706
						c-0.765,0.622-1.633,1.114-2.457,1.662C143.778,36.951,143.146,36.604,142.515,36.258"/>
					<path clip-path="url(#SVGID_8_)" fill-rule="evenodd" clip-rule="evenodd" fill="#46AABC" d="M156.508,43.808
						c0.14-0.002,0.283-0.03,0.417-0.004c1.24,0.239,2.249-0.222,3.181-0.993c0.825-0.685,1.196-1.642,1.612-2.571
						c2.466-5.522,4.921-11.05,7.391-16.571c0.451-1.009,0.602-2.029,0.188-3.069c-0.169-0.423-0.459-0.798-0.693-1.196
						c-0.063-0.108-0.124-0.217-0.186-0.327c1.237,0.522,2.196,1.311,2.585,2.662c0.254,0.881,0.218,1.743-0.145,2.585
						c-2.109,4.903-4.223,9.805-6.334,14.707c-0.463,1.074-0.899,2.161-1.39,3.223c-0.617,1.339-1.605,2.27-3.088,2.586
						c-0.762,0.163-1.503,0.067-2.198-0.284C157.392,44.325,156.955,44.058,156.508,43.808"/>
					<path clip-path="url(#SVGID_8_)" fill-rule="evenodd" clip-rule="evenodd" fill="#F6AD2D" d="M124.522,12.064
						c-0.757,0.863-1.568,1.685-2.26,2.599c-0.969,1.283-1.641,2.732-2.1,4.28c-0.712,2.401-0.885,4.834-0.409,7.296
						c0.147,0.767,0.404,1.513,0.61,2.268c0.037,0.138,0.072,0.277,0.108,0.416c-0.184,0.171-0.366,0.343-0.551,0.513
						c-0.325,0.298-0.65,0.594-0.977,0.892c-0.298-0.717-0.644-1.418-0.885-2.154c-0.542-1.649-0.714-3.364-0.566-5.082
						c0.104-1.217,0.382-2.421,0.621-3.624c0.238-1.203,0.829-2.274,1.407-3.333c0.379-0.694,0.908-1.308,1.382-1.948
						c0.788-1.062,1.827-1.861,2.835-2.694C124,11.683,124.261,11.873,124.522,12.064"/>
					<path clip-path="url(#SVGID_8_)" fill-rule="evenodd" clip-rule="evenodd" fill="#EA933B" d="M118.945,30.327
						c0.325-0.297,0.651-0.593,0.977-0.892c0.185-0.169,0.367-0.342,0.551-0.513c0.284,0.578,0.567,1.156,0.852,1.734
						c-1.463,1.543-2.911,3.102-4.394,4.626c-1.26,1.297-3.347,1.412-4.776,0.304c-0.252-0.195-0.49-0.406-0.734-0.61
						c0.67,0.228,1.346,0.353,2.062,0.251c0.846-0.121,1.55-0.5,2.121-1.114c1.055-1.132,2.091-2.282,3.129-3.429
						C118.823,30.584,118.875,30.447,118.945,30.327"/>
				</g>
			</g>
		</g>
	</g>
</g>
<g>
	<path fill="#FFFFFF" d="M7.832,26.444c-3.173,0-5.473,1.998-5.473,4.834c0,2.813,2.3,4.834,5.473,4.834
		c3.174,0,5.474-2.021,5.474-4.834C13.306,28.442,11.006,26.444,7.832,26.444z"/>
	<rect x="3.092" y="40.677" fill="#FFFFFF" width="9.457" height="31.214"/>
	<path fill="#FFFFFF" d="M39.639,61.335c-1.847,2.458-3.296,3.433-5.673,3.433c-2.73,0-3.964-1.405-3.964-5.897V40.677h-9.456
		v19.377c0,7.801,2.96,12.59,9.899,12.59c4.354,0,7.357-1.976,10.021-5.086h0.233l0.68,4.33h7.716V40.677h-9.457V61.335z"/>
</g>
</svg>
